<svg width="280" height="89" viewBox="0 0 280 89" fill="none" xmlns="http://www.w3.org/2000/svg">
 <rect width="280" height="89" fill="white"/>
 <g clip-path="url(#clip0)">
  <path fill="#201A62" d="M99.7987 29.9206C100.125 30.3654 100.292 30.9078 100.274 31.46C100.291 31.8498 100.208 32.2375 100.032 32.5856C99.8572 32.9337 99.5955 33.2304 99.2729 33.4471C98.6057 33.9105 97.6345 34.1436 96.3595 34.1465H91.3005V24.3046H96.0966C97.0617 24.2429 98.0219 24.4843 98.8445 24.9954C99.1474 25.2008 99.3939 25.4796 99.5614 25.806C99.7289 26.1324 99.812 26.496 99.8029 26.8632C99.8103 27.3136 99.6912 27.757 99.4594 28.1424C99.2269 28.5208 98.8953 28.8277 98.5011 29.0294C99.0152 29.1837 99.4687 29.4952 99.7987 29.9206ZM93.5522 26.0189V28.3386H95.7998C96.2433 28.3675 96.6855 28.2652 97.072 28.0444C97.209 27.9502 97.3198 27.8225 97.394 27.6732C97.4682 27.524 97.5033 27.3582 97.496 27.1915C97.5046 27.0246 97.47 26.8584 97.3957 26.7089C97.3214 26.5595 97.2098 26.4319 97.072 26.3387C96.6843 26.1214 96.2427 26.0208 95.7998 26.0487L93.5522 26.0189ZM97.5427 32.1338C97.692 32.0358 97.8127 31.8997 97.8925 31.7393C97.9722 31.5789 98.0081 31.4001 97.9964 31.2212C97.9964 30.4053 97.3957 29.9974 96.1941 29.9974H93.5522V32.428H96.1941C96.662 32.4567 97.1287 32.3549 97.5427 32.1338Z"/>
  <path fill="#201A62" d="M108.988 34.1465L107.122 31.4046H105.002V34.1465H102.754V24.3046H106.995C107.769 24.282 108.538 24.4274 109.251 24.7311C109.695 24.943 110.09 25.2469 110.409 25.6228C110.728 25.9987 110.964 26.4382 111.103 26.9124C111.241 27.3866 111.279 27.8849 111.213 28.3747C111.146 28.8644 110.978 29.3346 110.718 29.7543C110.358 30.3011 109.844 30.7284 109.243 30.9824L111.439 34.1465H108.988ZM108.416 26.6031C107.963 26.2849 107.414 26.1343 106.864 26.1766H105.002V29.6093H106.847C107.401 29.6483 107.951 29.4881 108.399 29.1573C108.579 28.9993 108.72 28.8018 108.812 28.5799C108.904 28.3581 108.944 28.1179 108.929 27.8781C108.945 27.6403 108.907 27.4021 108.818 27.1812C108.729 26.9603 108.592 26.7626 108.416 26.6031Z"/>
  <path fill="#201A62" d="M113.784 24.3046H116.028V34.1465H113.767L113.784 24.3046Z"/>
  <path fill="#201A62" d="M121.07 26.1596H117.936V24.3046H126.464V26.1596H123.334V34.1465H121.07V26.1596Z"/>
  <path fill="#201A62" d="M128.355 24.3046H130.62V34.1465H128.355V24.3046Z"/>
  <path fill="#201A62" d="M134.724 33.9972C134.101 33.8323 133.513 33.5533 132.99 33.1742L133.762 31.4685C134.216 31.7968 134.72 32.0488 135.255 32.2148C135.815 32.3991 136.4 32.4941 136.989 32.4962C137.481 32.5295 137.973 32.4294 138.414 32.2063C138.554 32.1341 138.672 32.0241 138.753 31.8885C138.835 31.753 138.878 31.5972 138.876 31.4387C138.878 31.3276 138.855 31.2175 138.808 31.1169C138.761 31.0164 138.691 30.928 138.605 30.8588C138.398 30.6886 138.161 30.561 137.905 30.4835C137.621 30.3897 137.235 30.2874 136.752 30.1765C136.131 30.0338 135.52 29.8558 134.92 29.6435C134.447 29.468 134.027 29.1745 133.698 28.7906C133.342 28.347 133.161 27.7867 133.189 27.2171C133.184 26.6652 133.343 26.1244 133.647 25.6649C133.995 25.1694 134.478 24.7857 135.038 24.5605C135.759 24.2647 136.533 24.1196 137.311 24.1341C137.929 24.132 138.544 24.2079 139.143 24.3601C139.695 24.4913 140.223 24.7085 140.708 25.004L140.008 26.7352C139.186 26.2392 138.249 25.97 137.29 25.9549C136.801 25.92 136.312 26.0281 135.882 26.2662C135.743 26.3509 135.628 26.4705 135.549 26.6133C135.469 26.756 135.428 26.917 135.428 27.0806C135.426 27.2471 135.477 27.41 135.572 27.5462C135.667 27.6824 135.802 27.7851 135.959 27.8397C136.473 28.058 137.009 28.2209 137.557 28.3258C138.177 28.4685 138.789 28.6465 139.389 28.8588C139.86 29.0371 140.28 29.3301 140.61 29.7117C140.971 30.1481 141.155 30.7057 141.124 31.2724C141.128 31.8219 140.963 32.3594 140.653 32.8118C140.301 33.3086 139.813 33.6922 139.249 33.9162C138.527 34.2116 137.752 34.3567 136.972 34.3426C136.21 34.3349 135.454 34.2186 134.724 33.9972Z"/>
  <path fill="#201A62" d="M152.463 24.3046V34.1465H150.199V30.1125H145.754V34.1465H143.49V24.3046H145.754V28.1851H150.199V24.3046H152.463Z"/>
  <path fill="#201A62" d="M97.7929 41.0673C98.2358 41.2806 98.6292 41.5849 98.9476 41.9607C99.2661 42.3366 99.5026 42.7754 99.6417 43.2489C99.7808 43.7225 99.8195 44.2201 99.7552 44.7096C99.6909 45.1991 99.5252 45.6696 99.2686 46.0906C98.9092 46.6405 98.3956 47.0709 97.7929 47.3272C97.079 47.627 96.3103 47.7723 95.5369 47.7536H93.5522V50.4657H91.2878V40.6324H95.5284C96.3054 40.6133 97.0775 40.7616 97.7929 41.0673ZM96.9447 45.4595C97.1126 45.295 97.246 45.0984 97.3371 44.8813C97.4282 44.6641 97.4751 44.4308 97.4751 44.1951C97.4751 43.9595 97.4282 43.7262 97.3371 43.509C97.246 43.2919 97.1126 43.0953 96.9447 42.9308C96.4919 42.6127 95.9435 42.462 95.3927 42.5044H93.5522V45.9158H95.3969C95.9498 45.9485 96.4969 45.7872 96.9447 45.4595Z"/>
  <path fill="#201A62" d="M109.633 48.6449V50.47H102.059V40.6324H109.45V42.4575H104.311V44.5896H108.852V46.3635H104.311V48.6406L109.633 48.6449Z"/>
  <path fill="#201A62" d="M114.331 42.4873H111.202V40.6324H119.717V42.4873H116.583V50.47H114.331V42.4873Z"/>
  <path fill="#201A62" d="M127.842 50.47L125.955 47.7281H123.873V50.47H121.608V40.6324H125.849C126.622 40.6118 127.392 40.7572 128.105 41.0588C128.716 41.3137 129.234 41.7508 129.591 42.3112C129.947 42.8716 130.124 43.5284 130.098 44.193C130.114 44.8613 129.931 45.5192 129.572 46.0821C129.209 46.6282 128.69 47.0516 128.084 47.2974L130.276 50.4614L127.842 50.47ZM127.269 42.9308C126.817 42.6127 126.268 42.462 125.717 42.5044H123.873V45.9158H125.717C126.268 45.9603 126.818 45.8094 127.269 45.4893C127.449 45.3307 127.59 45.1331 127.682 44.9114C127.774 44.6897 127.814 44.4498 127.8 44.2101C127.815 43.9702 127.776 43.7298 127.684 43.5078C127.592 43.2859 127.45 43.0884 127.269 42.9308Z"/>
  <path fill="#201A62" d="M134.551 49.9796C133.753 49.5515 133.085 48.9133 132.62 48.1333C132.154 47.3533 131.908 46.4608 131.908 45.5512C131.908 44.6415 132.154 43.749 132.62 42.969C133.085 42.189 133.753 41.5509 134.551 41.1228C135.4 40.6884 136.339 40.4619 137.292 40.4619C138.245 40.4619 139.184 40.6884 140.034 41.1228C140.824 41.5458 141.486 42.1747 141.951 42.9436C142.409 43.7354 142.65 44.6351 142.65 45.5512C142.65 46.4672 142.409 47.3669 141.951 48.1587C141.486 48.9276 140.824 49.5565 140.034 49.9796C139.184 50.414 138.245 50.6404 137.292 50.6404C136.339 50.6404 135.4 50.414 134.551 49.9796ZM138.859 48.2995C139.321 48.037 139.702 47.6501 139.957 47.1822C140.219 46.6789 140.356 46.1193 140.356 45.5512C140.356 44.9831 140.219 44.4234 139.957 43.9201C139.702 43.4522 139.321 43.0653 138.859 42.8029C138.379 42.5397 137.841 42.4019 137.294 42.4019C136.748 42.4019 136.21 42.5397 135.73 42.8029C135.268 43.0664 134.888 43.453 134.631 43.9201C134.372 44.4243 134.237 44.9836 134.237 45.5512C134.237 46.1187 134.372 46.678 134.631 47.1822C134.888 47.6493 135.268 48.036 135.73 48.2995C136.21 48.5626 136.748 48.7005 137.294 48.7005C137.841 48.7005 138.379 48.5626 138.859 48.2995Z"/>
  <path fill="#201A62" d="M147.077 49.9838C146.291 49.5661 145.634 48.9392 145.178 48.1715C144.725 47.3733 144.487 46.4702 144.487 45.5512C144.487 44.6322 144.725 43.729 145.178 42.9308C145.633 42.1622 146.29 41.535 147.077 41.1185C147.851 40.7244 148.699 40.5022 149.566 40.4669C150.432 40.4316 151.296 40.584 152.098 40.9138C152.766 41.1976 153.357 41.6359 153.824 42.1931L152.37 43.5406C152.072 43.1752 151.697 42.8819 151.271 42.6826C150.845 42.4832 150.38 42.383 149.91 42.3892C149.345 42.3784 148.786 42.5166 148.29 42.7901C147.822 43.0495 147.437 43.4369 147.179 43.9073C146.917 44.4106 146.78 44.9703 146.78 45.5384C146.78 46.1065 146.917 46.6661 147.179 47.1694C147.437 47.6399 147.822 48.0273 148.29 48.2867C148.787 48.5582 149.345 48.6962 149.91 48.6875C150.382 48.6936 150.848 48.5916 151.274 48.3891C151.7 48.1866 152.075 47.8891 152.37 47.5191L153.824 48.8709C153.357 49.448 152.755 49.9006 152.073 50.1885C151.343 50.4964 150.558 50.6502 149.766 50.6405C148.829 50.6513 147.905 50.4255 147.077 49.9838Z"/>
  <path fill="#201A62" d="M164.956 40.6324V50.47H162.674V46.4232H158.247V50.4572H155.983V40.6324H158.247V44.5128H162.674V40.6324H164.956Z"/>
  <path fill="#201A62" d="M175.566 48.6449V50.47H167.988V40.6324H175.396V42.4575H170.24V44.5896H174.781V46.3635H170.24V48.6406L175.566 48.6449Z"/>
  <path fill="#201A62" d="M187.067 50.47V44.5683L184.187 49.4295H183.165L180.299 44.6919V50.47H178.178V40.6324H180.053L183.716 46.7473L187.321 40.6324H189.178L189.208 50.47H187.067Z"/>
  <path fill="#201A62" d="M192.223 40.6324H194.479V50.47H192.215L192.223 40.6324Z"/>
  <path fill="#201A62" d="M199.521 49.9838C198.733 49.5674 198.074 48.9403 197.617 48.1715C197.164 47.3733 196.926 46.4702 196.926 45.5512C196.926 44.6322 197.164 43.729 197.617 42.9308C198.073 42.161 198.732 41.5336 199.521 41.1185C200.294 40.7243 201.142 40.5019 202.007 40.4666C202.873 40.4313 203.736 40.5838 204.538 40.9138C205.205 41.1976 205.797 41.6359 206.264 42.1931L204.809 43.5406C204.512 43.1752 204.136 42.8819 203.71 42.6826C203.285 42.4832 202.819 42.383 202.35 42.3892C201.784 42.3784 201.226 42.5166 200.73 42.7901C200.262 43.0495 199.877 43.4369 199.619 43.9073C199.357 44.4106 199.22 44.9703 199.22 45.5384C199.22 46.1065 199.357 46.6661 199.619 47.1694C199.877 47.6399 200.262 48.0273 200.73 48.2867C201.227 48.5582 201.785 48.6962 202.35 48.6875C202.821 48.6936 203.288 48.5916 203.714 48.3891C204.14 48.1866 204.515 47.8891 204.809 47.5191L206.264 48.8709C205.8 49.4411 205.205 49.889 204.53 50.1757C203.8 50.4839 203.014 50.6378 202.223 50.6277C201.283 50.6459 200.353 50.4244 199.521 49.9838Z"/>
  <path fill="#201A62" d="M215.11 48.3634H210.564L209.716 50.47H207.396L211.739 40.6324H213.986L218.358 50.47H215.983L215.11 48.3634ZM214.41 46.6322L212.862 42.8668L211.31 46.6322H214.41Z"/>
  <path fill="#201A62" d="M220.148 40.6324H222.412V48.615H227.319V50.47H220.148V40.6324Z"/>
  <path fill="#201A62" d="M230.605 50.3207C229.98 50.1581 229.391 49.8805 228.866 49.502L229.634 47.7963C230.089 48.1254 230.595 48.3775 231.131 48.5425C231.689 48.7272 232.273 48.8222 232.861 48.824C233.354 48.8577 233.847 48.7591 234.29 48.5383C234.43 48.4656 234.547 48.3553 234.627 48.2198C234.708 48.0842 234.75 47.9288 234.748 47.7707C234.751 47.6589 234.727 47.5481 234.68 47.4468C234.633 47.3455 234.564 47.2564 234.477 47.1865C234.269 47.0198 234.031 46.8939 233.777 46.8155C233.493 46.7217 233.111 46.6194 232.624 46.5042C232.004 46.365 231.394 46.187 230.796 45.9712C230.323 45.7952 229.901 45.5018 229.57 45.1183C229.214 44.6748 229.033 44.1145 229.062 43.5448C229.055 42.9922 229.216 42.4506 229.524 41.9927C229.869 41.4929 230.353 41.106 230.915 40.8797C231.634 40.5817 232.406 40.4365 233.183 40.4533C233.801 40.4533 234.416 40.5292 235.015 40.6793C235.568 40.8103 236.096 41.0291 236.58 41.3274L235.881 43.0331C235.06 42.5412 234.126 42.275 233.171 42.2613C232.683 42.226 232.196 42.3326 231.767 42.5683C231.628 42.6528 231.512 42.7723 231.433 42.9151C231.353 43.0579 231.312 43.2191 231.313 43.3828C231.312 43.5474 231.362 43.7082 231.455 43.8434C231.548 43.9785 231.681 44.0813 231.835 44.1376C232.352 44.352 232.889 44.5134 233.438 44.6194C234.057 44.7618 234.668 44.9412 235.266 45.1567C235.738 45.3345 236.159 45.6276 236.491 46.0096C236.848 46.448 237.029 47.0045 237 47.5703C237.004 48.1192 236.841 48.6563 236.534 49.1097C236.18 49.6066 235.691 49.9902 235.126 50.2141C234.404 50.5116 233.629 50.6568 232.848 50.6405C232.089 50.6426 231.334 50.5349 230.605 50.3207Z"/>
  <path fill="#201A62" d="M94.1629 57.9366C94.2908 58.0522 94.3932 58.1936 94.4632 58.3515C94.5333 58.5095 94.5695 58.6805 94.5695 58.8534C94.5695 59.0264 94.5333 59.1974 94.4632 59.3554C94.3932 59.5133 94.2908 59.6547 94.1629 59.7703C93.8429 60.0089 93.4495 60.1266 93.0518 60.1029H92.1528V61.186H91.6355V57.604H93.0518C93.4495 57.5802 93.8429 57.698 94.1629 57.9366ZM93.7897 59.4504C93.8714 59.3742 93.9366 59.2818 93.9811 59.1791C94.0257 59.0764 94.0487 58.9655 94.0487 58.8534C94.0487 58.7414 94.0257 58.6305 93.9811 58.5278C93.9366 58.4251 93.8714 58.3327 93.7897 58.2564C93.5677 58.1057 93.3021 58.0337 93.0349 58.0518H92.1528V59.6423H93.0349C93.3007 59.6642 93.5662 59.5967 93.7897 59.4504Z"/>
  <path fill="#201A62" d="M98.9378 60.7425V61.1689H96.3002V57.587H98.8657V58.0134H96.8218V59.1136H98.641V59.54H96.8218V60.6956L98.9378 60.7425Z"/>
  <path fill="#201A62" d="M103.119 61.186L102.335 60.0688H102.106H101.207V61.1561H100.689V57.5742H102.106C102.503 57.5504 102.897 57.6682 103.217 57.9068C103.354 58.0153 103.464 58.1549 103.538 58.3142C103.611 58.4735 103.647 58.648 103.641 58.8236C103.649 59.0759 103.576 59.324 103.433 59.5315C103.287 59.7337 103.08 59.8833 102.843 59.9579L103.692 61.1604L103.119 61.186ZM102.843 59.4504C102.925 59.3742 102.99 59.2818 103.035 59.1791C103.079 59.0764 103.102 58.9655 103.102 58.8535C103.102 58.7414 103.079 58.6305 103.035 58.5278C102.99 58.4251 102.925 58.3327 102.843 58.2565C102.621 58.1057 102.356 58.0337 102.089 58.0518H101.207V59.6637H102.089C102.357 59.6813 102.623 59.606 102.843 59.4504Z"/>
  <path fill="#201A62" d="M105.973 58.0518V59.3012H107.792V59.7276H105.973V61.1732H105.451V57.5912H108.017V58.0177L105.973 58.0518Z"/>
  <path fill="#201A62" d="M112.304 60.7425V61.1689H109.667V57.587H112.232V58.0134H110.188V59.1136H112.007V59.54H110.188V60.6956L112.304 60.7425Z"/>
  <path fill="#201A62" d="M114.654 60.9898C114.366 60.8362 114.126 60.6068 113.958 60.3262C113.79 60.0456 113.702 59.7245 113.702 59.3971C113.702 59.0698 113.79 58.7486 113.958 58.4681C114.126 58.1875 114.366 57.9581 114.654 57.8044C114.957 57.6418 115.298 57.5596 115.642 57.5656C115.907 57.5622 116.17 57.61 116.418 57.7064C116.65 57.7974 116.856 57.9437 117.02 58.1328L116.685 58.4526C116.553 58.3142 116.394 58.2048 116.218 58.1314C116.043 58.058 115.853 58.0221 115.663 58.0262C115.407 58.0226 115.155 58.0842 114.929 58.2053C114.717 58.3173 114.541 58.4873 114.42 58.6957C114.298 58.9097 114.234 59.1523 114.234 59.3993C114.234 59.6462 114.298 59.8888 114.42 60.1029C114.542 60.3113 114.718 60.4823 114.929 60.5975C115.155 60.7185 115.407 60.7802 115.663 60.7766C115.853 60.7807 116.043 60.7448 116.218 60.6714C116.394 60.598 116.553 60.4886 116.685 60.3502L117.02 60.6743C116.855 60.8621 116.649 61.0082 116.418 61.1007C116.134 61.2105 115.83 61.2589 115.526 61.2428C115.222 61.2266 114.925 61.1462 114.654 61.0069V60.9898Z"/>
  <path fill="#201A62" d="M119.662 58.0518H118.415V57.6253H121.422V58.0518H120.175V61.186H119.662V58.0518Z"/>
  <path fill="#201A62" d="M122.986 57.604H123.504V60.7425H125.471V61.1689H122.986V57.604Z"/>
  <path fill="#201A62" d="M128.007 59.9494V61.186H127.477V59.9408L126.035 57.604H126.629L127.791 59.4931L128.957 57.604H129.475L128.007 59.9494Z"/>
  <path fill="#201A62" d="M134.088 60.9898C133.804 60.8399 133.566 60.6142 133.401 60.3374C133.238 60.0514 133.152 59.7272 133.152 59.3971C133.152 59.0671 133.238 58.7429 133.401 58.4569C133.568 58.1798 133.807 57.9541 134.093 57.8044C134.395 57.6418 134.734 57.5596 135.076 57.5656C135.343 57.5622 135.608 57.61 135.857 57.7064C136.089 57.7974 136.295 57.9437 136.459 58.1328L136.124 58.4526C135.992 58.3138 135.832 58.2043 135.655 58.1309C135.479 58.0575 135.289 58.0218 135.098 58.0262C134.843 58.0226 134.592 58.0842 134.368 58.2053C134.149 58.3128 133.965 58.4816 133.838 58.6914C133.719 58.9064 133.656 59.1486 133.656 59.395C133.656 59.6414 133.719 59.8836 133.838 60.0986C133.96 60.3082 134.138 60.4794 134.351 60.5933C134.575 60.7143 134.826 60.7759 135.081 60.7724C135.272 60.7765 135.462 60.7407 135.638 60.6673C135.815 60.5939 135.975 60.4845 136.107 60.3459L136.442 60.67C136.276 60.8579 136.068 61.0039 135.836 61.0964C135.588 61.1963 135.322 61.2456 135.055 61.2414C134.717 61.2387 134.385 61.1523 134.088 60.9898Z"/>
  <path fill="#201A62" d="M140.577 61.186L139.775 60.0688H139.546H138.647V61.1561H138.13V57.5742H139.546C139.944 57.5504 140.337 57.6682 140.657 57.9068C140.79 58.0179 140.896 58.1586 140.966 58.3176C141.036 58.4767 141.068 58.6499 141.06 58.8236C141.068 59.0759 140.995 59.324 140.852 59.5315C140.707 59.7337 140.5 59.8833 140.263 59.9579L141.111 61.1604L140.577 61.186ZM140.301 59.4504C140.383 59.3742 140.448 59.2818 140.492 59.1791C140.537 59.0764 140.56 58.9655 140.56 58.8535C140.56 58.7414 140.537 58.6305 140.492 58.5278C140.448 58.4251 140.383 58.3327 140.301 58.2565C140.079 58.1057 139.813 58.0337 139.546 58.0518H138.664V59.6637H139.546C139.815 59.6813 140.081 59.606 140.301 59.4504Z"/>
  <path fill="#201A62" d="M145.547 60.7425V61.1689H142.909V57.587H145.475V58.0134H143.426V59.1136H145.25V59.54H143.426V60.6956L145.547 60.7425Z"/>
  <path fill="#201A62" d="M149.842 60.2905H147.913L147.51 61.186H146.984L148.63 57.604H149.147L150.796 61.186H150.249L149.842 60.2905ZM149.66 59.8641L148.875 58.1115L148.095 59.8641H149.66Z"/>
  <path fill="#201A62" d="M152.705 58.0518H151.458V57.6253H154.465V58.0518H153.218V61.186H152.705V58.0518Z"/>
  <path fill="#201A62" d="M158.667 60.7425V61.1689H156.029V57.587H158.595V58.0134H156.551V59.1136H158.37V59.54H156.551V60.6956L158.667 60.7425Z"/>
  <path fill="#201A62" d="M160.418 57.604H161.949C162.303 57.5981 162.653 57.6755 162.971 57.83C163.256 57.9712 163.495 58.1899 163.663 58.4611C163.83 58.7432 163.915 59.0667 163.909 59.395C163.916 59.7234 163.831 60.0473 163.663 60.3289C163.496 60.6017 163.256 60.8219 162.971 60.9642C162.653 61.1173 162.303 61.1932 161.949 61.186H160.418V57.604ZM161.915 60.7425C162.184 60.7495 162.45 60.691 162.691 60.5719C162.906 60.4687 163.086 60.304 163.209 60.0986C163.334 59.886 163.397 59.6421 163.391 59.395C163.397 59.148 163.333 58.9044 163.209 58.6914C163.079 58.4857 162.894 58.3215 162.674 58.2181C162.433 58.1017 162.167 58.0447 161.898 58.0518H160.936V60.7425H161.915Z"/>
  <path fill="#201A62" d="M51.358 32.0527V18.7526H38.0254L51.358 32.0527ZM62.5956 18.7526V32.0527L75.9324 18.7526H62.5956ZM38.0254 29.5965V37.3319H45.913L38.0254 29.5965ZM75.9324 37.3319V29.5965L68.0449 37.3319H75.9324ZM75.8985 56.5209V48.6278H67.977L75.8985 56.5209ZM38.0254 48.6278V56.5636L45.9766 48.6278H38.0254ZM51.358 69.6078V54.1756L41.5409 64.0345L51.358 69.6078ZM72.4127 64.0345L62.5956 54.1756V69.6078L72.4127 64.0345Z"/>
  <path fill="#CD181E" d="M75.907 18.7526L62.5956 32.0527V37.3276L75.907 23.9208V18.7526ZM51.3368 32.0527L38 18.7526V23.9208L51.3368 37.3276V32.0527ZM62.5956 48.6278L75.9282 62.0388V56.5636L67.9558 48.6278H62.5956ZM38 56.5636V62.0388L51.3368 48.6278H45.9554L38 56.5636ZM60.3057 39.6004V17H53.6013V39.6004H38V46.3507H53.6013V72.047L56.9556 74L60.3057 72.047V46.3507H75.9112V39.6004H60.3057Z"/>
 </g>
 <defs>
  <clipPath id="clip0">
   <rect width="199" height="57" fill="white" transform="translate(38 17)"/>
  </clipPath>
 </defs>
</svg>
