<?xml version='1.0' encoding='UTF-8'?>
<!DOCTYPE svg PUBLIC '-//W3C//DTD SVG 1.1//EN' 'http://www.w3.org/Graphics/SVG/1.1/DTD/svg11.dtd'>
<!-- Creator: CorelDRAW -->
<svg width="57.9773mm" height="23.5478mm" xmlns:xlink="http://www.w3.org/1999/xlink" version="1.1" viewBox="0 0 1350.59 548.55" xmlns="http://www.w3.org/2000/svg" xml:space="preserve" style="shape-rendering:geometricPrecision; text-rendering:geometricPrecision; image-rendering:optimizeQuality; fill-rule:evenodd; clip-rule:evenodd" xmlns:xodm="http://www.corel.com/coreldraw/odm/2003">
 <defs>
  <style type="text/css">
    .fil1 {fill:#0E599E;fill-rule:nonzero}
    .fil0 {fill:white;fill-rule:nonzero}
   </style>
 </defs>
 <g id="Слой_x0020_1">
  <metadata id="CorelCorpID_0Corel-Layer"/>
  <rect width="1350.59" y="0" height="548.55" class="fil0" x="-0"/>
  <path class="fil1" d="M297.7 161.39c9.74,-4.87 22.46,-10.66 38.15,-17.36 15.68,-6.7 32.74,-12.94 51.17,-18.73 18.43,-5.79 37.46,-10.73 57.11,-14.85 19.64,-4.11 38.23,-6.17 55.74,-6.17 17.51,0 33.27,2.74 47.28,8.22 14.01,5.48 24.52,14.77 31.52,27.87 3.05,5.79 3.66,11.35 1.83,16.68 -1.83,5.33 -5.26,10.35 -10.28,15.08 -5.02,4.72 -11.04,8.98 -18.05,12.79 -7,3.81 -14.16,7.16 -21.47,10.05 -7.31,2.89 -14.16,5.1 -20.56,6.63 -6.39,1.52 -11.27,2.28 -14.62,2.28 -7.62,0.31 -14.16,-0.53 -19.65,-2.51 -5.48,-1.98 -9.59,-4.26 -12.33,-6.85 -2.74,-2.59 -3.81,-5.1 -3.2,-7.54 0.61,-2.44 3.2,-3.96 7.77,-4.57 3.66,-0.61 8.76,-1.75 15.3,-3.42 6.55,-1.68 13.56,-3.73 21.02,-6.17 7.46,-2.44 14.85,-5.25 22.16,-8.45 7.31,-3.2 13.63,-6.4 18.96,-9.6 5.33,-3.2 9.06,-6.47 11.19,-9.82 2.13,-3.35 1.83,-6.55 -0.92,-9.6 -6.39,-6.4 -16.29,-9.82 -29.69,-10.28 -13.4,-0.46 -28.93,1.37 -46.6,5.48 -17.66,4.11 -36.7,10.05 -57.11,17.82 -20.41,7.77 -40.96,16.67 -61.68,26.73 -20.71,10.05 -40.74,20.79 -60.08,32.21 -19.34,11.42 -36.78,22.92 -52.31,34.49 -15.53,11.57 -28.33,22.84 -38.38,33.81 -10.05,10.97 -15.99,20.71 -17.82,29.24 -1.22,5.79 0.31,9.14 4.57,10.05 4.27,0.92 9.44,0.84 15.53,-0.23 6.09,-1.06 12.26,-2.66 18.5,-4.8 6.24,-2.13 10.74,-3.5 13.48,-4.11 11.88,-3.05 24.29,-6.47 37.23,-10.28 12.95,-3.81 25.96,-7.31 39.06,-10.51 13.1,-3.2 26.12,-5.94 39.06,-8.22 12.95,-2.28 25.66,-3.27 38.15,-2.97 7.31,0.31 15.3,2.51 23.98,6.63 8.68,4.11 16.29,9.52 22.84,16.22 6.55,6.7 11.04,14.39 13.48,23.07 2.44,8.68 1.06,17.74 -4.11,27.18 -5.79,10.05 -14.7,20.1 -26.73,30.15 -12.03,10.05 -25.97,19.49 -41.8,28.32 -15.84,8.83 -32.74,16.67 -50.71,23.53 -17.97,6.85 -35.71,12.18 -53.22,15.99 -17.51,3.81 -34.04,5.79 -49.57,5.94 -15.53,0.15 -28.78,-2.21 -39.75,-7.08 -7.92,-3.66 -14.7,-9.21 -20.33,-16.67 -5.64,-7.46 -9.37,-15.38 -11.19,-23.76 -1.83,-8.38 -1.22,-16.45 1.83,-24.22 3.05,-7.77 9.14,-13.94 18.28,-18.5 3.04,-1.22 6.4,-1.22 10.05,0 3.65,1.22 6.78,2.97 9.36,5.26 2.59,2.28 4.26,4.72 5.02,7.31 0.76,2.59 -0.07,4.64 -2.51,6.17 -10.97,7 -18.12,13.1 -21.47,18.28 -3.35,5.18 -3.96,9.44 -1.83,12.79 2.13,3.35 6.39,5.86 12.79,7.54 6.4,1.67 13.86,2.51 22.39,2.51 8.53,0 17.51,-0.61 26.95,-1.83 9.44,-1.22 18.43,-3.2 26.95,-5.94 25.89,-7.92 51.4,-18.05 76.52,-30.38 25.13,-12.33 49.11,-29.01 71.96,-50.03 11.27,-10.36 16.67,-17.9 16.22,-22.61 -0.46,-4.72 -4.87,-7.39 -13.25,-7.99 -8.38,-0.61 -19.72,0.31 -34.04,2.74 -14.31,2.43 -29.62,5.4 -45.91,8.91 -16.29,3.5 -32.67,7.08 -49.11,10.74 -16.45,3.66 -30.76,6.39 -42.94,8.22 -5.79,0.91 -12.11,1.3 -18.96,1.14 -6.85,-0.15 -13.56,-0.76 -20.1,-1.83 -6.55,-1.07 -12.79,-2.74 -18.73,-5.03 -5.94,-2.28 -10.89,-5.25 -14.85,-8.91 -11.88,-10.66 -16.29,-22.69 -13.25,-36.09 3.04,-13.4 10.89,-27.11 23.53,-41.12 12.64,-14.01 28.93,-27.87 48.88,-41.57 19.95,-13.71 41.04,-26.19 63.28,-37.46zm230.72 103.25c4.27,0 8.15,1.07 11.65,3.2 3.5,2.13 5.56,5.02 6.17,8.68 7.92,1.83 13.55,5.64 16.9,11.42 3.35,5.79 4.72,12.33 4.11,19.64 7.62,0.92 15,-0.3 22.16,-3.66 7.16,-3.35 12.72,-7.46 16.68,-12.33 2.44,-2.74 4.65,-4.57 6.62,-5.48 1.98,-0.92 3.58,-1.07 4.8,-0.46 1.22,0.61 1.83,1.75 1.83,3.43 0,1.67 -0.61,3.58 -1.83,5.71 -4.87,8.22 -11.96,15.68 -21.25,22.39 -9.29,6.7 -21.55,10.97 -36.78,12.79 -3.96,6.09 -8.91,11.58 -14.85,16.45 -5.94,4.87 -13.02,8.53 -21.25,10.96 -3.66,1.22 -8.15,1.22 -13.48,0 -5.33,-1.22 -10.51,-3.5 -15.53,-6.85 -5.02,-3.35 -9.21,-7.62 -12.56,-12.79 -3.35,-5.18 -4.57,-10.97 -3.66,-17.36 0.61,-6.09 2.36,-12.41 5.25,-18.96 2.9,-6.55 6.55,-12.57 10.97,-18.05 4.42,-5.48 9.52,-9.98 15.3,-13.48 5.79,-3.5 12.03,-5.25 18.73,-5.25zm-18.28 75.38c1.52,2.44 4.72,2.44 9.6,0 4.87,-2.44 9.6,-6.24 14.16,-11.42 -3.35,-2.44 -6.25,-5.71 -8.68,-9.82 -2.44,-4.11 -4.11,-8.91 -5.02,-14.39 -5.18,7 -8.83,13.93 -10.97,20.79 -2.13,6.85 -1.83,11.8 0.91,14.85zm290.11 -216.1c0.3,3.96 -1.6,9.14 -5.71,15.53 -4.11,6.4 -11.34,15.23 -21.7,26.5 -10.35,11.27 -24.44,25.74 -42.26,43.4 -17.82,17.66 -40.13,39.75 -66.93,66.24 -15.53,15.84 -28.63,31.98 -39.29,48.43 2.13,0.3 5.56,-0.46 10.28,-2.29 4.72,-1.83 9.98,-4.11 15.76,-6.85 5.79,-2.74 11.5,-5.64 17.13,-8.68 5.64,-3.04 10.28,-5.94 13.93,-8.68 3.35,-8.83 7.39,-16.68 12.11,-23.53 4.72,-6.85 8.91,-9.98 12.56,-9.37 2.13,0.61 4.42,1.45 6.85,2.51 2.44,1.06 4.65,2.28 6.62,3.66 1.98,1.37 3.58,2.97 4.8,4.8 1.22,1.83 1.67,3.96 1.37,6.4 -0.31,2.44 -1.67,6.01 -4.11,10.73 -2.44,4.72 -4.95,9.52 -7.54,14.39 -2.59,4.87 -4.72,9.29 -6.4,13.25 -1.67,3.96 -1.9,6.39 -0.68,7.31 0.91,0.61 3.05,0.23 6.4,-1.14 3.35,-1.37 7.46,-3.43 12.33,-6.17 4.87,-2.74 10.13,-6.09 15.76,-10.05 5.64,-3.96 11.19,-8.37 16.68,-13.25 6.09,-5.48 10.58,-7.16 13.48,-5.03 2.89,2.13 1.6,6.55 -3.88,13.25 -3.66,4.57 -8.07,9.36 -13.25,14.39 -5.18,5.02 -10.36,9.74 -15.53,14.16 -5.18,4.42 -10.05,8.22 -14.62,11.42 -4.57,3.2 -8.07,5.1 -10.51,5.71 -3.35,0.31 -7.23,-0.31 -11.65,-1.83 -4.42,-1.52 -8.68,-3.81 -12.79,-6.85 -4.11,-3.04 -7.46,-6.78 -10.05,-11.19 -2.59,-4.42 -3.58,-9.37 -2.97,-14.85l0 -0.46c-13.4,11.88 -23.83,20.63 -31.29,26.27 -7.46,5.64 -12.87,8.76 -16.22,9.37 -3.35,0.61 -6.4,0.08 -9.14,-1.6 -2.74,-1.67 -5.18,-3.73 -7.31,-6.17 -10.35,17.36 -18.12,32.36 -23.3,45 -5.18,12.64 -8.83,20.02 -10.97,22.16 -1.52,1.22 -3.96,1.14 -7.31,-0.23 -3.35,-1.37 -6.78,-3.42 -10.28,-6.17 -3.5,-2.74 -6.7,-5.86 -9.6,-9.37 -2.89,-3.5 -4.65,-6.78 -5.25,-9.82 0,-1.22 2.44,-6.17 7.31,-14.85 4.87,-8.68 11.57,-19.64 20.1,-32.9 8.53,-13.25 18.35,-28.25 29.47,-45 11.12,-16.75 22.77,-33.73 34.95,-50.94 12.18,-17.21 24.44,-34.11 36.78,-50.71 12.33,-16.6 23.98,-31.53 34.95,-44.77 10.97,-13.25 20.79,-24.06 29.47,-32.44 8.68,-8.37 15.46,-13.02 20.33,-13.93 6.09,-1.22 11.65,-1.07 16.67,0.46 5.03,1.52 9.29,3.66 12.79,6.4 3.5,2.74 6.24,5.79 8.22,9.14 1.98,3.35 3.12,6.09 3.43,8.22zm-21.93 0.91c-1.22,-0.91 -4.11,0.53 -8.68,4.34 -4.57,3.81 -10.2,9.29 -16.91,16.45 -6.7,7.16 -14.16,15.53 -22.39,25.13 -8.22,9.6 -16.67,19.8 -25.35,30.61 -8.68,10.81 -17.29,21.86 -25.81,33.12 -8.53,11.27 -16.45,21.93 -23.76,31.98 13.7,-13.4 28.17,-28.02 43.4,-43.86 15.23,-15.84 29.09,-30.69 41.57,-44.55 12.49,-13.86 22.46,-25.74 29.93,-35.63 7.46,-9.9 10.13,-15.76 7.99,-17.59zm-26.95 127.47c-1.83,0 -4.04,-0.46 -6.63,-1.37 -2.59,-0.91 -5.02,-2.13 -7.31,-3.65 -2.28,-1.52 -4.11,-3.28 -5.48,-5.26 -1.37,-1.98 -1.9,-4.03 -1.6,-6.17 0.31,-1.83 1.14,-4.27 2.51,-7.31 1.37,-3.05 2.97,-6.02 4.8,-8.91 1.83,-2.89 3.88,-5.4 6.17,-7.54 2.28,-2.13 4.49,-3.5 6.63,-4.11 2.13,-0.31 4.72,0.08 7.77,1.14 3.04,1.06 5.94,2.59 8.68,4.57 2.74,1.98 4.95,4.11 6.63,6.39 1.67,2.29 2.36,4.19 2.05,5.71 0,1.83 -0.91,4.19 -2.74,7.08 -1.83,2.89 -3.96,5.71 -6.39,8.45 -2.44,2.74 -5.1,5.18 -7.99,7.31 -2.89,2.13 -5.26,3.35 -7.08,3.66zm15.08 -6.85c1.52,-1.52 11.12,-2.59 28.78,-3.2 4.87,-4.26 9.44,-7.77 13.7,-10.51 4.27,-2.74 8.38,-4.11 12.34,-4.11 3.66,0 7.61,1.45 11.88,4.34 4.26,2.89 7.61,6.17 10.05,9.82 15.54,0 32.13,-0.15 49.8,-0.46 17.66,-0.31 35.63,-0.76 53.91,-1.37 23.15,-0.61 45.84,-1.52 68.07,-2.74 22.23,-1.22 42.33,-2.44 60.3,-3.66 17.97,-1.22 32.9,-2.29 44.77,-3.2 11.88,-0.91 19.19,-1.37 21.93,-1.37 5.18,0 10.89,0.84 17.13,2.51 6.25,1.67 11.96,3.66 17.13,5.94 5.18,2.29 9.21,4.72 12.11,7.31 2.89,2.59 3.43,4.95 1.6,7.08 -1.22,1.22 -7.16,1.9 -17.82,2.05 -10.66,0.15 -24.75,0.15 -42.26,0 -17.51,-0.15 -37.77,-0.38 -60.76,-0.68 -23,-0.31 -47.36,-0.53 -73.1,-0.68 -25.74,-0.15 -52.01,-0.15 -78.81,0 -26.8,0.15 -52.85,0.84 -78.13,2.05 -3.35,2.44 -7.61,6.09 -12.79,10.97 -5.18,4.87 -10.51,10.2 -15.99,15.99 -5.48,5.79 -10.89,11.88 -16.22,18.27 -5.33,6.4 -9.82,12.34 -13.48,17.82 -3.66,5.48 -6.17,10.28 -7.54,14.39 -1.37,4.11 -0.99,6.93 1.14,8.45 1.83,1.22 6.09,-0.15 12.79,-4.11 6.7,-3.96 13.93,-8.68 21.7,-14.16 7.77,-5.48 15.23,-10.89 22.39,-16.22 7.16,-5.33 12.11,-8.76 14.85,-10.28 5.48,-3.66 9.44,-4.42 11.88,-2.28 2.44,2.13 2.29,5.02 -0.46,8.68 -1.52,1.83 -5.18,5.71 -10.97,11.65 -5.79,5.94 -12.56,12.03 -20.33,18.28 -7.77,6.24 -15.84,11.8 -24.21,16.67 -8.38,4.87 -15.61,7.31 -21.7,7.31 -12.49,0 -20.63,-3.43 -24.44,-10.28 -3.81,-6.85 -4.95,-15.38 -3.42,-25.58 1.52,-10.2 5.18,-21.17 10.96,-32.9 5.79,-11.73 12.34,-22.31 19.65,-31.75 -14.31,-3.05 -19.8,-6.4 -16.45,-10.05zm188.23 52.08c5.79,-4.27 8.98,-5.64 9.6,-4.11 0.61,1.52 -0.46,4.41 -3.2,8.68 -2.74,4.57 -6.63,9.9 -11.65,15.99 -5.02,6.09 -10.58,11.88 -16.67,17.36 -6.09,5.48 -12.49,10.35 -19.19,14.62 -6.7,4.26 -12.95,6.85 -18.73,7.77 -3.96,0.61 -9.14,-0.38 -15.53,-2.97 -6.4,-2.59 -12.57,-6.32 -18.5,-11.19 -5.94,-4.87 -10.89,-10.51 -14.85,-16.91 -3.96,-6.39 -5.33,-12.94 -4.11,-19.64 0.91,-5.48 3.2,-10.74 6.85,-15.76 3.66,-5.02 7.77,-9.44 12.33,-13.25 4.57,-3.81 9.21,-6.85 13.93,-9.14 4.72,-2.28 8.76,-3.43 12.11,-3.43 2.74,0 5.86,0.76 9.36,2.29 3.5,1.52 6.7,3.5 9.6,5.94 2.89,2.44 5.18,5.26 6.85,8.45 1.68,3.2 2.36,6.47 2.06,9.82 -0.61,3.35 -2.89,7.24 -6.85,11.65 -3.96,4.42 -8.37,8.76 -13.25,13.02 -5.48,4.87 -11.88,9.9 -19.19,15.08 6.7,1.83 17.44,-0.31 32.21,-6.4 14.77,-6.09 30.38,-15.38 46.83,-27.87zm-53.91 -8.68c-1.22,-0.91 -4.03,-0.23 -8.45,2.06 -4.42,2.29 -8.76,5.25 -13.02,8.91 -4.27,3.66 -7.84,7.69 -10.74,12.11 -2.89,4.41 -3.58,8.15 -2.06,11.19 1.83,-0.91 4.8,-3.04 8.91,-6.39 4.11,-3.35 8.22,-7 12.33,-10.97 4.11,-3.96 7.54,-7.54 10.28,-10.74 2.74,-3.2 3.65,-5.25 2.74,-6.17zm145.28 7.31c7.01,-4.26 11.27,-5.48 12.79,-3.66 1.52,1.83 -0.15,5.18 -5.02,10.05 -5.18,4.87 -10.66,9.82 -16.45,14.85 -5.79,5.02 -11.5,9.75 -17.13,14.16 -5.64,4.41 -11.19,8.15 -16.68,11.19 -5.48,3.04 -10.51,5.02 -15.08,5.94 -3.96,0.61 -8.53,0.68 -13.7,0.23 -5.18,-0.46 -10.05,-1.75 -14.62,-3.88 -4.57,-2.13 -8.38,-5.1 -11.42,-8.91 -3.05,-3.81 -4.57,-8.76 -4.57,-14.85 0,-3.66 2.82,-11.27 8.45,-22.84 5.64,-11.57 13.1,-24.97 22.39,-40.21 9.29,-15.23 19.8,-31.45 31.52,-48.65 11.73,-17.21 23.91,-33.43 36.55,-48.66 12.64,-15.23 25.05,-28.48 37.23,-39.75 12.18,-11.27 23.3,-18.58 33.35,-21.93 3.05,-1.22 7.31,-1.67 12.79,-1.37 5.48,0.31 10.81,1.3 15.99,2.97 5.18,1.67 9.67,4.11 13.48,7.31 3.81,3.2 5.71,6.93 5.71,11.19 0,4.87 -2.74,11.57 -8.22,20.1 -5.48,8.53 -12.79,18.05 -21.93,28.56 -9.14,10.51 -19.64,21.78 -31.52,33.81 -11.88,12.03 -24.37,23.98 -37.46,35.86 -13.1,11.88 -26.19,23.22 -39.29,34.04 -13.1,10.81 -25.28,20.33 -36.55,28.55 -3.35,4.57 -6.09,8.83 -8.22,12.79 -1.83,3.35 -3.28,6.63 -4.34,9.82 -1.07,3.2 -0.84,5.41 0.68,6.63 0.91,0.91 4.57,0 10.97,-2.74 6.39,-2.74 13.48,-6.09 21.24,-10.05 7.77,-3.96 15.38,-7.99 22.84,-12.11 7.46,-4.11 12.87,-6.93 16.22,-8.45zm92.29 -174.52c-1.22,-1.52 -4.04,-0.61 -8.45,2.74 -4.41,3.35 -9.82,8.38 -16.22,15.08 -6.39,6.7 -13.4,14.54 -21.01,23.53 -7.62,8.98 -15.38,18.2 -23.3,27.64 -18.58,22.54 -39.29,48.58 -62.14,78.12 3.96,-3.04 10.2,-8.37 18.73,-15.99 8.53,-7.62 17.9,-16.52 28.1,-26.73 10.2,-10.2 20.71,-20.86 31.52,-31.98 10.81,-11.12 20.41,-21.62 28.78,-31.53 8.38,-9.9 14.93,-18.58 19.65,-26.04 4.72,-7.46 6.17,-12.41 4.34,-14.85z"/>
 </g>
</svg>
